<svg class="svg-icon" style="width: 1em; height: 1em;vertical-align: middle;fill: currentColor;overflow: hidden;" viewBox="0 0 1024 1024" version="1.1" xmlns="http://www.w3.org/2000/svg"><path d="M597.333333 137.813333 597.333333 225.706667C720.64 262.4 810.666667 376.746667 810.666667 512 810.666667 647.253333 720.64 761.173333 597.333333 797.866667L597.333333 886.186667C768 847.36 896 694.613333 896 512 896 329.386667 768 176.64 597.333333 137.813333M704 512C704 436.48 661.333333 371.626667 597.333333 340.053333L597.333333 682.666667C661.333333 652.373333 704 587.093333 704 512M128 384 128 640 298.666667 640 512 853.333333 512 170.666667 298.666667 384 128 384Z"  /></svg>